<?xml version="1.0" encoding="utf-8"?><!-- Uploaded to: SVG Repo, www.svgrepo.com, Generator: SVG Repo Mixer Tools -->
<svg fill="#000000" width="800px" height="800px" viewBox="0 0 24 24" id="exclamation" data-name="Flat Line" xmlns="http://www.w3.org/2000/svg" class="icon flat-line"><path id="secondary" d="M13,13H11a1,1,0,0,1-1-1V4a1,1,0,0,1,1-1h2a1,1,0,0,1,1,1v8A1,1,0,0,1,13,13Zm1,6a2,2,0,1,0-2,2A2,2,0,0,0,14,19Z" style="fill: rgb(44, 169, 188); stroke-width: 2;"></path><path id="primary" d="M13,13H11a1,1,0,0,1-1-1V4a1,1,0,0,1,1-1h2a1,1,0,0,1,1,1v8A1,1,0,0,1,13,13Zm1,6a2,2,0,1,0-2,2A2,2,0,0,0,14,19Z" style="fill: none; stroke: rgb(0, 0, 0); stroke-linecap: round; stroke-linejoin: round; stroke-width: 2;"></path></svg>