<?xml version="1.0" encoding="utf-8"?>
<!-- Uploaded to: SVG Repo, www.svgrepo.com, Generator: SVG Repo Mixer Tools -->
<svg width="800px" height="800px" viewBox="0 -1.11 20 20" xmlns="http://www.w3.org/2000/svg">
  <g id="binoculars" transform="translate(-2 -3.219)">
    <path id="secondary" fill="#2ca9bc" d="M16.5,11a4.49,4.49,0,0,1,4.1,2.67V13.6h0L17.72,5.92A3,3,0,0,0,12,7,3,3,0,0,0,6.28,6L3.44,13.56h0v.07A4.49,4.49,0,0,1,12,15.5,4.49,4.49,0,0,1,16.5,11Z"/>
    <path id="primary" d="M12,15.5a4.49,4.49,0,1,1-1.315-3.185A4.5,4.5,0,0,1,12,15.5ZM16.5,11a4.49,4.49,0,1,1-3.185,1.315A4.5,4.5,0,0,1,16.5,11Z" fill="none" stroke="#000000" stroke-linecap="round" stroke-linejoin="round" stroke-width="2"/>
    <path id="primary-2" data-name="primary" d="M12,14.84V7A3,3,0,0,0,6.28,6L3.56,13.23" fill="none" stroke="#000000" stroke-linecap="round" stroke-linejoin="round" stroke-width="2"/>
    <path id="primary-3" data-name="primary" d="M12,14.84V7a3,3,0,0,1,5.72-1l2.72,7.31" fill="none" stroke="#000000" stroke-linecap="round" stroke-linejoin="round" stroke-width="2"/>
  </g>
</svg>