<?xml version="1.0" encoding="utf-8"?><!-- Uploaded to: SVG Repo, www.svgrepo.com, Generator: SVG Repo Mixer Tools -->
<svg fill="#000000" width="800px" height="800px" viewBox="0 0 24 24" id="audio-jack-connector" data-name="Flat Line" xmlns="http://www.w3.org/2000/svg" class="icon flat-line"><path id="secondary" d="M11,14V10a1,1,0,0,0-1-1H6a1,1,0,0,0-1,1v4a3,3,0,0,0,3,3H8A3,3,0,0,0,11,14Z" style="fill: rgb(44, 169, 188); stroke-width: 2;"></path><path id="primary" d="M19,18V8a2,2,0,0,0-2-2h0a2,2,0,0,0-2,2v9.5A3.5,3.5,0,0,1,11.5,21h0A3.5,3.5,0,0,1,8,17.5V17" style="fill: none; stroke: rgb(0, 0, 0); stroke-linecap: round; stroke-linejoin: round; stroke-width: 2;"></path><path id="primary-2" data-name="primary" d="M8,3H8a2,2,0,0,1,2,2V9H6V5A2,2,0,0,1,8,3Zm3,11V10a1,1,0,0,0-1-1H6a1,1,0,0,0-1,1v4a3,3,0,0,0,3,3H8A3,3,0,0,0,11,14Z" style="fill: none; stroke: rgb(0, 0, 0); stroke-linecap: round; stroke-linejoin: round; stroke-width: 2;"></path></svg>