<?xml version="1.0" encoding="utf-8"?>

<!DOCTYPE svg PUBLIC "-//W3C//DTD SVG 1.1//EN" "http://www.w3.org/Graphics/SVG/1.1/DTD/svg11.dtd">
<!-- Uploaded to: SVG Repo, www.svgrepo.com, Generator: SVG Repo Mixer Tools -->
<svg height="800px" width="800px" version="1.1" id="_x32_" xmlns="http://www.w3.org/2000/svg" xmlns:xlink="http://www.w3.org/1999/xlink" 
	 viewBox="0 0 512 512"  xml:space="preserve">
<style type="text/css">
	.st0{fill:#000000;}
</style>
<g>
	<path class="st0" d="M497.209,88.393l-73.626-73.6c-19.721-19.712-51.656-19.729-71.376-0.017L304.473,62.51L71.218,295.816
		c-9.671,9.662-17.066,21.341-21.695,34.193L2.238,461.6c-4.93,13.73-1.492,29.064,8.818,39.372
		c10.318,10.317,25.659,13.739,39.39,8.801l131.565-47.286c12.851-4.628,24.539-12.032,34.201-21.694l220.801-220.817l0.017,0.017
		l12.481-12.498l47.699-47.725l0.026-0.018C516.861,140.039,516.939,108.14,497.209,88.393z M170.064,429.26l-83.822,30.133
		l-33.606-33.607l30.116-83.831c0.224-0.604,0.517-1.19,0.758-1.792l88.339,88.339C171.245,428.752,170.676,429.036,170.064,429.26z
		 M191.242,415.831c-1.19,1.19-2.457,2.284-3.741,3.362l-94.674-94.674c1.069-1.276,2.163-2.552,3.352-3.741L327.685,89.22
		l95.079,95.08L191.242,415.831z M472.247,134.808l-35.235,35.244l-1.767,1.767l-95.08-95.079l37.003-37.003
		c5.921-5.896,15.506-5.905,21.454,0.017l73.625,73.609c5.921,5.904,5.93,15.489-0.026,21.47L472.247,134.808z"/>
</g>
</svg>