<?xml version="1.0" encoding="utf-8"?><!-- Uploaded to: SVG Repo, www.svgrepo.com, Generator: SVG Repo Mixer Tools -->
<svg fill="#000000" width="800px" height="800px" viewBox="0 0 24 24" id="maximize-direction" data-name="Flat Line" xmlns="http://www.w3.org/2000/svg" class="icon flat-line"><path id="secondary" d="M20,3l-3.72.69a1,1,0,0,0-.58,1.55l3,3a1,1,0,0,0,1.55-.58L21,4A.81.81,0,0,0,20,3ZM4,21l3.72-.69a1,1,0,0,0,.58-1.55l-3-3a1,1,0,0,0-1.55.58L3,20A.81.81,0,0,0,4,21Z" style="fill: rgb(44, 169, 188); stroke-width: 2;"></path><path id="primary" d="M14,10l3-3m-7,7L7,17M20,3l-3.72.69a1,1,0,0,0-.58,1.55l3,3a1,1,0,0,0,1.55-.58L21,4A.81.81,0,0,0,20,3ZM4,21l3.72-.69a1,1,0,0,0,.58-1.55l-3-3a1,1,0,0,0-1.55.58L3,20A.81.81,0,0,0,4,21Z" style="fill: none; stroke: rgb(0, 0, 0); stroke-linecap: round; stroke-linejoin: round; stroke-width: 2;"></path></svg>