<?xml version="1.0" encoding="utf-8"?><!-- Uploaded to: SVG Repo, www.svgrepo.com, Generator: SVG Repo Mixer Tools -->
<svg fill="#000000" width="800px" height="800px" viewBox="0 0 24 24" id="file-13" data-name="Flat Line" xmlns="http://www.w3.org/2000/svg" class="icon flat-line"><path id="secondary" d="M6,21a1,1,0,0,1-1-1V7L9,3h9a1,1,0,0,1,1,1V20a1,1,0,0,1-1,1Z" style="fill: rgb(44, 169, 188); stroke-width: 2;"></path><path id="primary" d="M15,17H9m6-4H9m6-4H9m9,12a1,1,0,0,0,1-1V4a1,1,0,0,0-1-1H9L5,7V20a1,1,0,0,0,1,1Z" style="fill: none; stroke: rgb(0, 0, 0); stroke-linecap: round; stroke-linejoin: round; stroke-width: 2;"></path></svg>