<?xml version="1.0" encoding="utf-8"?><!-- Uploaded to: SVG Repo, www.svgrepo.com, Generator: SVG Repo Mixer Tools -->
<svg fill="#000000" width="800px" height="800px" viewBox="0 0 24 24" id="molecule" data-name="Flat Line" xmlns="http://www.w3.org/2000/svg" class="icon flat-line"><circle id="secondary" cx="12" cy="12" r="4" style="fill: rgb(44, 169, 188); stroke-width: 2;"></circle><path id="primary" d="M15,9l2-2m-2,8,2,2M9,15,7,17M9,9,7,7m5,1a4,4,0,1,0,4,4A4,4,0,0,0,12,8Zm7-5a2,2,0,1,0,2,2A2,2,0,0,0,19,3Zm2,16a2,2,0,1,0-2,2A2,2,0,0,0,21,19ZM5,21a2,2,0,1,0-2-2A2,2,0,0,0,5,21ZM3,5A2,2,0,1,0,5,3,2,2,0,0,0,3,5Z" style="fill: none; stroke: rgb(0, 0, 0); stroke-linecap: round; stroke-linejoin: round; stroke-width: 2;"></path></svg>